<svg xmlns="http://www.w3.org/2000/svg" fill="none" viewBox="0 0 48 48" id="Phone-Message--Streamline-Plump" height="48" width="48"><desc>Phone Message Streamline Icon: https://streamlinehq.com</desc><g id="line/Phone/Mobile Phone/phone-message--android-phone-mobile-device-smartphone-iphone-text-message"><path id="Rectangle 1095" stroke="#000000" stroke-linecap="round" stroke-linejoin="round" d="M32.9529 30c-0.0704 4.3031 -0.209 7.5377 -0.3417 9.8076 -0.1473 2.521 -1.9737 4.53 -4.4875 4.7705C25.8091 44.7995 22.4773 45 18 45s-7.8092 -0.2005 -10.12368 -0.4219c-2.51387 -0.2405 -4.34026 -2.2502 -4.48762 -4.7712C3.20026 36.5828 3 31.4129 3 24c0 -7.4129 0.20026 -12.5828 0.3887 -15.80685 0.14736 -2.52104 1.97376 -4.53077 4.48763 -4.77126C10.1908 3.20047 13.5227 3 18 3c1.4524 0 2.7843 0.0211 4 0.05716" stroke-width="3"></path><path id="Vector 1363" stroke="#000000" stroke-linecap="round" d="M16 40h4" stroke-width="3"></path><path id="Intersect" stroke="#000000" stroke-linecap="round" stroke-linejoin="round" d="m12.2656 3.12109 0.4063 3.2505c0.1877 1.50128 1.4639 2.62789 2.9769 2.62789h2.8516" stroke-width="3"></path><path id="Union" stroke="#000000" stroke-linejoin="round" d="M45 14c0 -6.07513 -4.9249 -11 -11 -11S23 7.92487 23 14c0 1.9541 0.5096 3.7893 1.4031 5.3798 -0.3919 1.1085 -0.7675 2.3802 -1.0464 3.6287 -0.2195 0.983 0.6451 1.8137 1.6224 1.5705 1.1978 -0.298 2.4308 -0.6725 3.5253 -1.0481C30.1213 24.4653 31.9982 25 34 25c6.0751 0 11 -4.9249 11 -11Z" stroke-width="3"></path><path id="Vector 1365" stroke="#000000" stroke-linecap="round" d="M28.25 14h0.5" stroke-width="3"></path><path id="Vector 1366" stroke="#000000" stroke-linecap="round" d="M33.75 14h0.5" stroke-width="3"></path><path id="Vector 1367" stroke="#000000" stroke-linecap="round" d="M39.25 14h0.5" stroke-width="3"></path></g></svg>