<svg xmlns="http://www.w3.org/2000/svg" fill="none" viewBox="0 0 48 48" id="Stopwatch-Quarter--Streamline-Plump" height="48" width="48"><desc>Stopwatch Quarter Streamline Icon: https://streamlinehq.com</desc><g id="Line/Interface Essential/Time/stopwatch-quarter--time-fifteen-quarter-stopwatch-minute-measure-seconds"><path id="Vector 4143" stroke="#000000" stroke-linecap="round" stroke-linejoin="round" d="m14.1016 17.0996 0.7071 0.7071" stroke-width="3"></path><path id="Vector 4140" stroke="#000000" stroke-linecap="round" stroke-linejoin="round" d="M24 41v-1" stroke-width="3"></path><path id="Vector 4142" stroke="#000000" stroke-linecap="round" stroke-linejoin="round" d="m10 27 1 0" stroke-width="3"></path><path id="Vector 4146" stroke="#000000" stroke-linecap="round" stroke-linejoin="round" d="m14.1016 36.9004 0.7071 -0.7071" stroke-width="3"></path><path id="Vector 4145" stroke="#000000" stroke-linecap="round" stroke-linejoin="round" d="m33.8984 36.8984 -0.7071 -0.7071" stroke-width="3"></path><path id="Rectangle 137" stroke="#000000" d="M19.271 2.1244c-1.0489 0.05976 -1.9853 0.70979 -2.1681 1.74442C17.0418 4.21522 17 4.59866 17 5c0 0.40134 0.0418 0.78478 0.1029 1.13118 0.1828 1.03463 1.1192 1.68466 2.1681 1.74442C20.3645 7.9379 21.9649 8 24 8s3.6355 -0.0621 4.729 -0.1244c1.0489 -0.05976 1.9853 -0.70979 2.1681 -1.74442C30.9582 5.78478 31 5.40134 31 5c0 -0.40134 -0.0418 -0.78478 -0.1029 -1.13118 -0.1828 -1.03463 -1.1192 -1.68466 -2.1681 -1.74442C27.6355 2.0621 26.0351 2 24 2s-3.6355 0.0621 -4.729 0.1244Z" stroke-width="3"></path><path id="Subtract" stroke="#000000" stroke-linejoin="round" d="M40.3987 17.3971c0.1601 -0.1585 0.3271 -0.3245 0.501 -0.4985 0.8403 -0.8403 1.4968 -1.517 2.007 -2.0567 1.0943 -1.1573 1.3373 -2.799 0.317 -4.0221 -0.2562 -0.3071 -0.5572 -0.6396 -0.9098 -0.99224 -0.3526 -0.3526 -0.6851 -0.6536 -0.9922 -0.90979 -1.2231 -1.02026 -2.8649 -0.77727 -4.0222 0.31699 -0.5396 0.51024 -1.2163 1.16674 -2.0567 2.00704 -0.0868 0.0868 -0.1716 0.1718 -0.2545 0.2552 2.1943 1.5582 4.0434 3.5706 5.4104 5.9001Z" stroke-width="3"></path><path id="Subtract_2" stroke="#000000" stroke-linejoin="round" d="M13.0126 11.497c-0.083 -0.0834 -0.1679 -0.1686 -0.2548 -0.2554 -0.8326 -0.8326 -1.5046 -1.48475 -2.0418 -1.99298 -1.16547 -1.10261 -2.82176 -1.34543 -4.05302 -0.31681 -0.30322 0.25331 -0.63047 0.54973 -0.97627 0.89553 -0.34579 0.34576 -0.64222 0.67306 -0.89553 0.97626 -1.02861 1.2313 -0.78579 2.8876 0.31682 4.053 0.50822 0.5372 1.16033 1.2092 1.99293 2.0418 0.17402 0.174 0.34103 0.3402 0.50126 0.4988 1.36695 -2.3296 3.21611 -4.342 5.41041 -5.9002Z" stroke-width="3"></path><path id="Ellipse 20" stroke="#000000" stroke-linejoin="round" d="M43 27a19 19 0 1 0 -38 0 19 19 0 1 0 38 0" stroke-width="3"></path><path id="Ellipse 21" stroke="#000000" stroke-linejoin="round" d="M24 8c2.4951 0 4.9658 0.49145 7.271 1.44629 2.3052 0.95481 4.3997 2.35441 6.164 4.11871 1.7643 1.7643 3.1639 3.8588 4.1187 6.164C42.5086 22.0342 43 24.5049 43 27l-19 0V8Z" stroke-width="3"></path></g></svg>