<svg xmlns="http://www.w3.org/2000/svg" fill="none" viewBox="0 0 48 48" id="Sos-Help-Emergency-Sign--Streamline-Plump" height="48" width="48"><desc>Sos Help Emergency Sign Streamline Icon: https://streamlinehq.com</desc><g id="line/Health/Ambulance/sos-help-emergency-sign"><path id="Vector 3" stroke="#000000" stroke-linecap="round" stroke-linejoin="round" d="M12.7646 18c-0.1811 -0.5589 -0.4605 -1.0672 -0.8156 -1.5 -0.7553 -0.9206 -1.853 -1.5 -3.07467 -1.5H5.68144c-2.03357 0 -3.68211 1.7984 -3.68211 4.0168 0 1.8877 1.20486 3.5207 2.89525 3.9241l4.86125 1.1601c1.89367 0.4519 3.24347 2.2826 3.24347 4.3974 0 2.4852 -1.8468 4.5016 -4.12497 4.5016h-2.75c-1.79605 0 -3.324 -1.2522 -3.89028 -3" stroke-width="3"></path><path id="Vector 4" stroke="#000000" stroke-linecap="round" stroke-linejoin="round" d="M45.7646 18c-0.1811 -0.5589 -0.4605 -1.0672 -0.8156 -1.5 -0.7553 -0.9206 -1.853 -1.5 -3.0747 -1.5h-3.1929c-2.0335 0 -3.6821 1.7984 -3.6821 4.0168 0 1.8877 1.2049 3.5207 2.8953 3.9241l4.8612 1.1601c1.8937 0.4519 3.2435 2.2826 3.2435 4.3974 0 2.4852 -1.8468 4.5016 -4.125 4.5016h-2.75c-1.796 0 -3.324 -1.2522 -3.8903 -3" stroke-width="3"></path><path id="Vector 2" stroke="#000000" stroke-linecap="round" stroke-linejoin="round" d="M18.4987 19.001v10c0 2.2091 1.7909 4 4 4h3c2.2092 0 4 -1.7909 4 -4v-10c0 -2.2092 -1.7908 -4 -4 -4h-3c-2.2091 0 -4 1.7908 -4 4Z" stroke-width="3"></path></g></svg>