<svg xmlns="http://www.w3.org/2000/svg" fill="none" viewBox="0 0 48 48" id="Chat-Bubble-Square-Write--Streamline-Plump" height="48" width="48"><desc>Chat Bubble Square Write Streamline Icon: https://streamlinehq.com</desc><g id="chat-bubble-square-write--messages-message-bubble-chat-square-write-review-pen-pencil-compose"><path id="Rectangle 66" stroke="#000000" stroke-linejoin="round" d="M44.6651 10.9044c1.4538 -1.45377 2.0058 -3.58044 0.7572 -5.21392 -0.3876 -0.50719 -0.8669 -1.06376 -1.4581 -1.65492 -0.5911 -0.59117 -1.1477 -1.07042 -1.6549 -1.45809 -1.6335 -1.24853 -3.7602 -0.69654 -5.214 0.75727L26.0484 14.3817c-0.5439 0.544 -0.9157 1.2354 -0.9757 2.0023 -0.0741 0.9467 -0.1234 2.4943 0.0148 4.7367 0.0595 0.9637 0.8279 1.7321 1.7916 1.7916 2.2424 0.1382 3.79 0.0889 4.7367 0.0148 0.7668 -0.06 1.4583 -0.4317 2.0022 -0.9757l11.0471 -11.047Z" stroke-width="3"></path><path id="Rectangle 67" stroke="#000000" stroke-linecap="round" stroke-linejoin="round" d="M41.9996 13.5695s-0.401 -2.356 -2.8073 -4.76222C36.7861 6.40104 34.4297 6 34.4297 6" stroke-width="3"></path><path id="Union" stroke="#000000" stroke-linecap="round" stroke-linejoin="round" d="M31.5 2.08411C29.2959 2.03213 26.8008 2 24 2c-7.8817 0 -13.3432 0.25441 -16.7094 0.48979 -2.54734 0.17813 -4.53956 2.07752 -4.77088 4.62058C2.25918 9.97453 2 14.3655 2 20.5s0.25918 10.5255 0.51972 13.3896c0.23132 2.5431 2.22354 4.4425 4.77088 4.6206 1.89009 0.1322 4.4407 0.2703 7.7094 0.3661v4.7753c0 1.7087 2.0042 2.6305 3.3016 1.5185l7.2021 -6.1732c7.0779 -0.0298 12.0579 -0.2666 15.2057 -0.4867 2.5473 -0.1781 4.5396 -2.0775 4.7709 -4.6206C45.7408 31.0255 46 26.6345 46 20.5c0 -1.4267 -0.014 -2.7592 -0.0388 -4" stroke-width="3"></path></g></svg>